<?xml version="1.0" encoding="utf-8"?>
<!-- Generator: Adobe Illustrator 28.5.0, SVG Export Plug-In . SVG Version: 9.03 Build 54727)  -->
<svg version="1.1" id="Layer_1" xmlns="http://www.w3.org/2000/svg" xmlns:xlink="http://www.w3.org/1999/xlink" x="0px" y="0px"
	 viewBox="0 0 100 100" style="enable-background:new 0 0 100 100;" xml:space="preserve">
<g>
	<path d="M12.7,74.56h74.6c6.86,0,12.7,5.62,12.7,12.72S94.16,100,87.3,100H12.7C5.84,100,0,94.38,0,87.28S5.84,74.56,12.7,74.56z"/>
	<path d="M12.7,0h74.6C94.16,0,100,5.62,100,12.72s-5.84,12.72-12.7,12.72H12.7C5.84,25.44,0,19.82,0,12.72S5.84,0,12.7,0z"/>
	<path d="M12.7,36.61h74.6c6.86,0,12.7,5.62,12.7,12.72s-5.84,12.72-12.7,12.72H12.7C5.84,62.05,0,56.44,0,49.33
		S5.84,36.61,12.7,36.61z"/>
</g>
</svg>