<?xml version="1.0" encoding="utf-8"?>
<!-- Generator: Adobe Illustrator 28.5.0, SVG Export Plug-In . SVG Version: 9.03 Build 54727)  -->
<svg version="1.1" id="Layer_1" xmlns="http://www.w3.org/2000/svg" xmlns:xlink="http://www.w3.org/1999/xlink" x="0px" y="0px"
	 viewBox="0 0 612 792" style="enable-background:new 0 0 612 792;" xml:space="preserve">
<g>
	<path style="fill:#EF3B39;" d="M270.53,198.88h23.11c2.13,0,3.93,1.72,3.93,3.89s-1.81,3.89-3.93,3.89h-23.11
		c-2.13,0-3.93-1.72-3.93-3.89S268.4,198.88,270.53,198.88z"/>
	<path style="fill:#EF3B39;" d="M270.53,176.09h23.11c2.13,0,3.93,1.72,3.93,3.89s-1.81,3.89-3.93,3.89h-23.11
		c-2.13,0-3.93-1.72-3.93-3.89S268.4,176.09,270.53,176.09z"/>
	<path style="fill:#EF3B39;" d="M270.53,187.49h23.11c2.13,0,3.93,1.72,3.93,3.89s-1.81,3.89-3.93,3.89h-23.11
		c-2.13,0-3.93-1.72-3.93-3.89S268.4,187.49,270.53,187.49z"/>
</g>
</svg>